<svg xmlns="http://www.w3.org/2000/svg" xmlns:xlink="http://www.w3.org/1999/xlink" xmlns:lucid="lucid" width="881.95" height="583.6"><g transform="translate(-40 -220)" lucid:page-tab-id="3Fh1qaoNcPm5"><path d="M0 0h1760v1360H0z" fill="#fff"/><path d="M901.47 279.1v-12.6l-13.3-14.6-21.8 48.1 21.8 48.08 13.3-14.62v-12.7l-4.43 3.08v-6.15l4.43-2.32v-12.7l-4.43.1v-5.68l4.43.2v-12.4l-4.43-2.32v-4.33l4.43.86z" fill="#2e73b8"/><path d="M864.4 360l23.77-11.88v-96.24L864.4 240l-26.88 60.96 26.9 59.04z" fill="#5294cf"/><path d="M831.16 360h33.26V240h-33.26l-17.22 60.96L831.16 360z" fill="#2e73b8"/><path d="M831.14 360l-23.96-11.88-7.52-47.16 7.52-49.08 23.9-11.88.06 120z" fill="#205b99"/><path d="M897.05 317.76l-8.9 4.33-23.75 5.1h-33.28l-23.22-5.1-.42-.1-.32-.1v-18.1l23.96 1.74h33.27l23.74-1.73 13.36-1.14h-4.45v-5.4h4.34l-13.26-.95-23.74-.76h-33.07l-24.17.58v-18.28h.32l23.85-5.68h33.06l23.74 5.68 8.9 4.7v-2.97l4.46-.38-13.36-9.34-23.74-7.7h-33.07l-24.17 7.98v-18.27L795.5 266.5v12.7l3.4.37v3.08l-3.4 1.92v12.7h3.4v5.4l-3.4.08v12.6l3.4 1.93v3.17l-3.4.4v12.6l11.66 14.6V329.8l23.96 7.4h33.27l23.74-7.4 13.36-8.94-4.45-.4v-2.68z" fill="#19486f"/><use xlink:href="#a" transform="matrix(1,0,0,1,795.5,360) translate(1.5999999999999943 14.4)"/><use xlink:href="#b" transform="matrix(1,0,0,1,795.5,360) translate(98.45 14.4)"/><use xlink:href="#c" transform="matrix(1,0,0,1,795.5,360) translate(7.049999999999997 36)"/><use xlink:href="#d" transform="matrix(1,0,0,1,795.5,360) translate(61 36)"/><path d="M439.5 427.5l-24.05-.98-15.57.97 25.7 35.1 13.9-35.1z" fill="#fad791"/><path d="M439.5 412.98l-24.05.97-15.57-.97 25.7-35.1 13.9 35.1zM340.5 412.9l24.04 1.05 15.57-1-25.7-34.9-13.9 34.86z" fill="#624a1e"/><path d="M340.5 427.5l24.04-.98 15.57.97-25.7 35.14-13.9-35.15z" fill="#fad791"/><path d="M425.6 411.56l13.9 1.4v-28.1l-13.9-7v33.7z" fill="#d9a741"/><path d="M399.88 384.85l25.7-6.98v33.7l-25.7 1.4v-28.12z" fill="#876929"/><path d="M390 380.75l27.84 9.14v13.9L390 398.85v-18.1z" fill="#d9a741"/><path d="M377.46 401.16l12.76-2.26 27.62 4.9-12.36 1.36-28.02-4z" fill="#624a1e"/><path d="M354.4 411.54l-13.9 1.37v-28.2l13.9-6.87v33.7z" fill="#876929"/><path d="M380.1 384.82l-25.7-7v33.73l25.7 1.4v-28.13z" fill="#d9a741"/><path d="M390 380.75l-27.85 9.14v13.9l27.84-4.94v-18.1z" fill="#876929"/><path d="M402.53 401.16l-12.76-2.26-27.62 4.9 12.36 1.36 28.03-4z" fill="#624a1e"/><path d="M425.6 428.9l13.9-1.4v28.12l-13.9 6.98v-33.7z" fill="#d9a741"/><path d="M399.88 455.62l25.7 6.98v-33.7l-25.7-1.4v28.12z" fill="#876929"/><path d="M390 459.7l27.84-9.14v-13.9L390 441.6v18.1z" fill="#d9a741"/><path d="M377.46 439.3l12.76 2.24 27.62-4.88-12.36-1.35-28.02 4z" fill="#fad791"/><path d="M354.4 428.9l-13.9-1.4v28.1l13.9 7.02V428.9z" fill="#876929"/><path d="M380.1 455.63l-25.7 7V428.9l25.7-1.4v28.13z" fill="#d9a741"/><path d="M390 459.7l-27.85-9.14v-13.9L390 441.6v18.1z" fill="#876929"/><path d="M402.53 439.3l-12.76 2.24-27.62-4.88 12.36-1.35 28.03 4z" fill="#fad791"/><path d="M375.2 472.56L390 480l8.2-4.08 6.6-108.48L390 360l-14.8 7.44v105.12z" fill="#876929"/><path d="M404.8 472.56L390 480V360l14.8 7.44v105.12z" fill="#d9a741"/><use xlink:href="#e" transform="matrix(1,0,0,1,340.5,480) translate(35 14.4)"/><use xlink:href="#f" transform="matrix(1,0,0,1,340.5,480) translate(14.024999999999999 36)"/><path d="M675 422.36c0 31.8-25.76 57.63-57.5 57.63S560 454.16 560 422.35c0-31.8 25.76-57.63 57.5-57.63s57.5 25.82 57.5 57.63z" fill="#9d5025"/><path d="M560 417.62h115v4.73H560v-4.73z" fill="#9d5025"/><path d="M675 417.63c0 31.8-25.76 57.63-57.5 57.63S560 449.44 560 417.63c0-31.8 25.76-57.63 57.5-57.63s57.5 25.82 57.5 57.63z" fill="#f58536"/><path d="M654.9 445.96l-4.48-11.8-9.97 3.84-14.23-37.42-3.97-10.33-1.88-4.9-2.9-7.65h-18.92v12.55h10.26l3.63 9.34-29.76 53.02h14.37l21.16-37.8 15.03 39.4 3.6-1.37 8.1-3.06 9.97-3.84z" fill="#fff"/><use xlink:href="#g" transform="matrix(1,0,0,1,560,480) translate(25.025 14.4)"/><use xlink:href="#h" transform="matrix(1,0,0,1,560,480) translate(21.525 36)"/><path d="M440.5 430h101.55" stroke="#000" stroke-width="2" fill="none"/><path d="M438.1 431h-1.6v-2h2.4zm2.42 0h-1.03v-2h1.02z"/><path d="M557.32 430l-14.27 4.64v-9.28z" stroke="#000" stroke-width="2"/><path d="M166.78 463.6h-38.02c-2.04 0-3.67 1.63-3.67 3.64h45.3c0-2-1.63-3.63-3.62-3.64zM128.78 470.87h38.02c2 0 3.62-1.62 3.62-3.6h-45.3c.04 2 1.67 3.6 3.66 3.6z" fill-opacity="0"/><path d="M170.4 467.26c0 2-1.57 3.62-3.6 3.62h-38.05c-2.04.02-3.6-1.6-3.72-3.62H60v3.62c0 5.03 4.08 9.1 9.12 9.1h101.75c5.04.02 9.12-4.05 9.12-9.1v-3.62zM175.97 423.96l-5.87 6.44c0 2.3-1.92 4.14-4.2 4.14H73.98c-2.27-.02-4.2-1.86-4.2-4.14l-4.9-6.44h-4.8v6.44c0 7.62 6.24 13.78 13.9 13.76h91.94c7.67.02 13.9-6.14 13.9-13.76v-6.44z" fill="#7d7c7c"/><path d="M170.88 449.16c4.92-.03 9.12 4 9.12 9.02v7.35c0 5.06-4.08 9.1-9.12 9.1H69.12c-5.04 0-9.12-4.04-9.12-9.06v-7.33c0-5 4.08-9.08 9.12-9.05zm-4.08 16.38c2.04 0 3.6-1.63 3.6-3.64 0-2-1.56-3.65-3.6-3.65h-38.04c-2.04 0-3.6 1.64-3.6 3.65 0 2 1.56 3.64 3.6 3.64h38.04M165.9 360c7.67 0 13.9 6.15 13.9 13.7v51.4c0 7.57-6.23 13.72-13.9 13.72H73.98c-7.66 0-13.9-6.15-13.9-13.72v-51.4c0-7.55 6.24-13.7 13.9-13.7zm4.2 65.1v-51.4c0-2.27-1.92-4.08-4.2-4.08H73.98c-2.27 0-4.2 1.8-4.2 4.1v51.38c0 2.2 1.93 4.1 4.2 4.1h91.94c2.28 0 4.2-1.8 4.2-4.1" fill="#d2d3d3"/><use xlink:href="#i" transform="matrix(1,0,0,1,60,480) translate(39.05 14.4)"/><path d="M217.67 431H180.8v-2h36.87zM322 431h-19.38v-2H322z"/><path d="M180.82 431h-1.1l.08-.56V429h1.02zM337.26 430L323 434.64v-9.28z"/><path d="M340.5 430l-18.5 6v-12zm-16.5 3.26l10.03-3.26-10.03-3.26z"/><use xlink:href="#j" transform="matrix(1,0,0,1,217.67297762655673,408.4) translate(0 14.4)"/><use xlink:href="#k" transform="matrix(1,0,0,1,217.67297762655673,408.4) translate(0 36)"/><path d="M675.44 430h59.53V310H777" stroke="#000" stroke-width="2" fill="none"/><path d="M675.47 431h-1.16l.27-2h.9z"/><path d="M792.26 310L778 314.64v-9.28z" stroke="#000" stroke-width="2"/><path d="M471.32 692.56l17.7 2.15 16.32-13.43L489 665.24l-17.68 2.18v25.14zM520.2 643.3l10.04-2.56 7.4 31.4-7.4 41.44-10.04-1.46V643.3z" fill="#692f56"/><path d="M530.24 710.68l8.25 4.47V644.9l-8.26-4.16v69.94z" fill="#ad688b"/><path d="M520.2 702.1l10.04 1.48-41.25 36.4-11.04-27.3 42.25-10.58z" fill="#cfb2c1"/><path d="M457.8 716.68l-10.06 2.57-5.7-71.5 15.75 2.5v66.43z" fill="#ad688b"/><path d="M457.78 657.88l-10.03-1.47L489 620l11.03 27.3-42.25 10.58z" fill="#512843"/><path d="M500.03 712.65l-26.73-6.67-10.65 2.04 26.4 30.83 10.98-26.2z" fill="#cfb2c1"/><path d="M477.96 647.3l11-27.28 26.38 31.94L504.7 654l-26.74-6.7z" fill="#512843"/><path d="M506.67 692.56L489 694.7v-29.46l17.67 2.18v25.14zM538.5 715.15L489 740v-24l43.96-13.25 3.02.9 2.52 11.5z" fill="#ad688b"/><path d="M462.65 708.03l26.34 7.95v23.97l-26.35-13.2v-18.72z" fill="#692f56"/><path d="M515.34 651.94L489 644v-23.98l26.34 13.22v18.7z" fill="#ad688b"/><path d="M439.5 644.85L489 620v24l-49.5 14.9v-14.05z" fill="#692f56"/><path d="M447.75 650.2l-8.25-5.36v70.24l8.25 4.17V650.2z" fill="#692f56"/><use xlink:href="#l" transform="matrix(1,0,0,1,439.5,740) translate(16.525 14.4)"/><use xlink:href="#m" transform="matrix(1,0,0,1,439.5,740) translate(18.549999999999997 36)"/><path d="M490 601.5h-2v-52.82h2zm0-74.42h-2V431h-47.5v-2H490z"/><path d="M440.52 431h-1.03v-2h1.02zm-2.42 0h-1.6v-2h2.4zM489 616.76l-4.64-14.26h9.28z"/><path d="M489 620l-6-18.5h12zm-3.26-16.5l3.26 10.03 3.26-10.03z"/><use xlink:href="#n" transform="matrix(1,0,0,1,432.05,527.08232) translate(0 14.4)"/><path d="M843.5 485.42l57.98 8.62v5.1c0 7.53-25.98 13.63-58 13.63-32 0-57.98-6.1-57.98-13.64v-5.53z" fill="#8c3123"/><path d="M843.52 522.13c24.2 0 44.93-3.54 53.58-8.5l2.88-4.78 1.15-4.4v5.45l-19 81c0 5.08-17.3 9.1-38.6 9.1-21.33 0-38.6-4.02-38.6-9.1l-19.02-81v-5.35l4.38 9.27c8.76 4.87 29.27 8.3 53.24 8.3z" fill="#8c3123"/><path d="M843.5 480c32 0 58 6.12 58 13.62 0 7.5-26 13.57-58 13.57s-58-6.02-58-13.58c0-7.56 26-13.62 58-13.62z" fill="#e05243"/><path d="M843.5 516.6c29.84 0 54.4-5.2 57.62-12.06l-19.02 81c0 5.05-17.3 9.1-38.6 9.1-21.33 0-38.6-4.05-38.6-9.1l-19.03-81c3.23 6.85 27.78 12.07 57.62 12.07z" fill="#e05243"/><g><use xlink:href="#o" transform="matrix(1,0,0,1,785.5,600) translate(11.524999999999999 14.4)"/><use xlink:href="#p" transform="matrix(1,0,0,1,785.5,600) translate(38.525 14.4)"/><use xlink:href="#b" transform="matrix(1,0,0,1,785.5,600) translate(98.525 14.4)"/><use xlink:href="#q" transform="matrix(1,0,0,1,785.5,600) translate(11.125 36)"/></g><path d="M675.44 430h59.44v120h41.93" stroke="#000" stroke-width="2" fill="none"/><path d="M675.47 431h-1.16l.27-2h.9z"/><path d="M792.08 550l-14.27 4.64v-9.28z" stroke="#000" stroke-width="2"/><defs><path d="M30-248c118-7 216 8 213 122C240-48 200 0 122 0H30v-248zM63-27c89 8 146-16 146-99s-60-101-146-95v194" id="r"/><path d="M179-190L93 31C79 59 56 82 12 73V49c39 6 53-20 64-50L1-190h34L92-34l54-156h33" id="s"/><path d="M117-194c89-4 53 116 60 194h-32v-121c0-31-8-49-39-48C34-167 62-67 57 0H25l-1-190h30c1 10-1 24 2 32 11-22 29-35 61-36" id="t"/><path d="M141-36C126-15 110 5 73 4 37 3 15-17 15-53c-1-64 63-63 125-63 3-35-9-54-41-54-24 1-41 7-42 31l-33-3c5-37 33-52 76-52 45 0 72 20 72 64v82c-1 20 7 32 28 27v20c-31 9-61-2-59-35zM48-53c0 20 12 33 32 33 41-3 63-29 60-74-43 2-92-5-92 41" id="u"/><path d="M210-169c-67 3-38 105-44 169h-31v-121c0-29-5-50-35-48C34-165 62-65 56 0H25l-1-190h30c1 10-1 24 2 32 10-44 99-50 107 0 11-21 27-35 58-36 85-2 47 119 55 194h-31v-121c0-29-5-49-35-48" id="v"/><path d="M100-194c62-1 85 37 85 99 1 63-27 99-86 99S16-35 15-95c0-66 28-99 85-99zM99-20c44 1 53-31 53-75 0-43-8-75-51-75s-53 32-53 75 10 74 51 75" id="w"/><path d="M160-131c35 5 61 23 61 61C221 17 115-2 30 0v-248c76 3 177-17 177 60 0 33-19 50-47 57zm-97-11c50-1 110 9 110-42 0-47-63-36-110-37v79zm0 115c55-2 124 14 124-45 0-56-70-42-124-44v89" id="x"/><g id="a"><use transform="matrix(0.05,0,0,0.05,0,0)" xlink:href="#r"/><use transform="matrix(0.05,0,0,0.05,12.950000000000001,0)" xlink:href="#s"/><use transform="matrix(0.05,0,0,0.05,21.950000000000003,0)" xlink:href="#t"/><use transform="matrix(0.05,0,0,0.05,31.950000000000003,0)" xlink:href="#u"/><use transform="matrix(0.05,0,0,0.05,41.95,0)" xlink:href="#v"/><use transform="matrix(0.05,0,0,0.05,56.900000000000006,0)" xlink:href="#w"/><use transform="matrix(0.05,0,0,0.05,66.9,0)" xlink:href="#r"/><use transform="matrix(0.05,0,0,0.05,79.85000000000001,0)" xlink:href="#x"/></g><path d="M16-82v-28h88v28H16" id="y"/><use transform="matrix(0.05,0,0,0.05,0,0)" xlink:href="#y" id="b"/><path d="M143 4C61 4 22-44 18-125c-5-107 100-154 193-111 17 8 29 25 37 43l-32 9c-13-25-37-40-76-40-61 0-88 39-88 99 0 61 29 100 91 101 35 0 62-11 79-27v-45h-74v-28h105v86C228-13 192 4 143 4" id="z"/><path d="M100-194c63 0 86 42 84 106H49c0 40 14 67 53 68 26 1 43-12 49-29l28 8c-11 28-37 45-77 45C44 4 14-33 15-96c1-61 26-98 85-98zm52 81c6-60-76-77-97-28-3 7-6 17-6 28h103" id="A"/><g id="c"><use transform="matrix(0.05,0,0,0.05,0,0)" xlink:href="#z"/><use transform="matrix(0.05,0,0,0.05,14,0)" xlink:href="#u"/><use transform="matrix(0.05,0,0,0.05,24,0)" xlink:href="#v"/><use transform="matrix(0.05,0,0,0.05,38.95,0)" xlink:href="#A"/></g><path d="M59-47c-2 24 18 29 38 22v24C64 9 27 4 27-40v-127H5v-23h24l9-43h21v43h35v23H59v120" id="B"/><g id="d"><use transform="matrix(0.05,0,0,0.05,0,0)" xlink:href="#r"/><use transform="matrix(0.05,0,0,0.05,12.950000000000001,0)" xlink:href="#u"/><use transform="matrix(0.05,0,0,0.05,22.950000000000003,0)" xlink:href="#B"/><use transform="matrix(0.05,0,0,0.05,27.950000000000003,0)" xlink:href="#u"/></g><path d="M205 0l-28-72H64L36 0H1l101-248h38L239 0h-34zm-38-99l-47-123c-12 45-31 82-46 123h93" id="C"/><path d="M30-248c87 1 191-15 191 75 0 78-77 80-158 76V0H30v-248zm33 125c57 0 124 11 124-50 0-59-68-47-124-48v98" id="D"/><path d="M33 0v-248h34V0H33" id="E"/><g id="e"><use transform="matrix(0.05,0,0,0.05,0,0)" xlink:href="#C"/><use transform="matrix(0.05,0,0,0.05,12,0)" xlink:href="#D"/><use transform="matrix(0.05,0,0,0.05,24,0)" xlink:href="#E"/></g><path d="M206 0h-36l-40-164L89 0H53L-1-190h32L70-26l43-164h34l41 164 42-164h31" id="F"/><g id="f"><use transform="matrix(0.05,0,0,0.05,0,0)" xlink:href="#z"/><use transform="matrix(0.05,0,0,0.05,14,0)" xlink:href="#u"/><use transform="matrix(0.05,0,0,0.05,24,0)" xlink:href="#B"/><use transform="matrix(0.05,0,0,0.05,29,0)" xlink:href="#A"/><use transform="matrix(0.05,0,0,0.05,39,0)" xlink:href="#F"/><use transform="matrix(0.05,0,0,0.05,51.95,0)" xlink:href="#u"/><use transform="matrix(0.05,0,0,0.05,61.95,0)" xlink:href="#s"/></g><path d="M30 0v-248h33v221h125V0H30" id="G"/><path d="M115-194c53 0 69 39 70 98 0 66-23 100-70 100C84 3 66-7 56-30L54 0H23l1-261h32v101c10-23 28-34 59-34zm-8 174c40 0 45-34 45-75 0-40-5-75-45-74-42 0-51 32-51 76 0 43 10 73 51 73" id="H"/><path d="M85-194c31 0 48 13 60 33l-1-100h32l1 261h-30c-2-10 0-23-3-31C134-8 116 4 85 4 32 4 16-35 15-94c0-66 23-100 70-100zm9 24c-40 0-46 34-46 75 0 40 6 74 45 74 42 0 51-32 51-76 0-42-9-74-50-73" id="I"/><g id="g"><use transform="matrix(0.05,0,0,0.05,0,0)" xlink:href="#G"/><use transform="matrix(0.05,0,0,0.05,10,0)" xlink:href="#u"/><use transform="matrix(0.05,0,0,0.05,20,0)" xlink:href="#v"/><use transform="matrix(0.05,0,0,0.05,34.95,0)" xlink:href="#H"/><use transform="matrix(0.05,0,0,0.05,44.95,0)" xlink:href="#I"/><use transform="matrix(0.05,0,0,0.05,54.95,0)" xlink:href="#u"/></g><path d="M101-234c-31-9-42 10-38 44h38v23H63V0H32v-167H5v-23h27c-7-52 17-82 69-68v24" id="J"/><path d="M84 4C-5 8 30-112 23-190h32v120c0 31 7 50 39 49 72-2 45-101 50-169h31l1 190h-30c-1-10 1-25-2-33-11 22-28 36-60 37" id="K"/><path d="M96-169c-40 0-48 33-48 73s9 75 48 75c24 0 41-14 43-38l32 2c-6 37-31 61-74 61-59 0-76-41-82-99-10-93 101-131 147-64 4 7 5 14 7 22l-32 3c-4-21-16-35-41-35" id="L"/><path d="M24-231v-30h32v30H24zM24 0v-190h32V0H24" id="M"/><path d="M135-143c-3-34-86-38-87 0 15 53 115 12 119 90S17 21 10-45l28-5c4 36 97 45 98 0-10-56-113-15-118-90-4-57 82-63 122-42 12 7 21 19 24 35" id="N"/><g id="h"><use transform="matrix(0.05,0,0,0.05,0,0)" xlink:href="#J"/><use transform="matrix(0.05,0,0,0.05,5,0)" xlink:href="#K"/><use transform="matrix(0.05,0,0,0.05,15,0)" xlink:href="#t"/><use transform="matrix(0.05,0,0,0.05,25,0)" xlink:href="#L"/><use transform="matrix(0.05,0,0,0.05,34,0)" xlink:href="#B"/><use transform="matrix(0.05,0,0,0.05,39,0)" xlink:href="#M"/><use transform="matrix(0.05,0,0,0.05,42.95,0)" xlink:href="#w"/><use transform="matrix(0.05,0,0,0.05,52.95,0)" xlink:href="#t"/><use transform="matrix(0.05,0,0,0.05,62.95,0)" xlink:href="#N"/></g><path d="M24 0v-261h32V0H24" id="O"/><g id="i"><use transform="matrix(0.05,0,0,0.05,0,0)" xlink:href="#L"/><use transform="matrix(0.05,0,0,0.05,9,0)" xlink:href="#O"/><use transform="matrix(0.05,0,0,0.05,12.949999999999998,0)" xlink:href="#M"/><use transform="matrix(0.05,0,0,0.05,16.9,0)" xlink:href="#A"/><use transform="matrix(0.05,0,0,0.05,26.899999999999995,0)" xlink:href="#t"/><use transform="matrix(0.05,0,0,0.05,36.9,0)" xlink:href="#B"/></g><path d="M106-169C34-169 62-67 57 0H25v-261h32l-1 103c12-21 28-36 61-36 89 0 53 116 60 194h-32v-121c2-32-8-49-39-48" id="P"/><path d="M115-194c55 1 70 41 70 98S169 2 115 4C84 4 66-9 55-30l1 105H24l-1-265h31l2 30c10-21 28-34 59-34zm-8 174c40 0 45-34 45-75s-6-73-45-74c-42 0-51 32-51 76 0 43 10 73 51 73" id="Q"/><path d="M68-38c1 34 0 65-14 84H32c9-13 17-26 17-46H33v-38h35" id="R"/><g id="j"><use transform="matrix(0.05,0,0,0.05,0,0)" xlink:href="#P"/><use transform="matrix(0.05,0,0,0.05,10,0)" xlink:href="#B"/><use transform="matrix(0.05,0,0,0.05,15,0)" xlink:href="#B"/><use transform="matrix(0.05,0,0,0.05,20,0)" xlink:href="#Q"/><use transform="matrix(0.05,0,0,0.05,30,0)" xlink:href="#N"/><use transform="matrix(0.05,0,0,0.05,39,0)" xlink:href="#R"/></g><path d="M143 0L79-87 56-68V0H24v-261h32v163l83-92h37l-77 82L181 0h-38" id="S"/><g id="k"><use transform="matrix(0.05,0,0,0.05,0,0)" xlink:href="#F"/><use transform="matrix(0.05,0,0,0.05,12.950000000000001,0)" xlink:href="#A"/><use transform="matrix(0.05,0,0,0.05,22.950000000000003,0)" xlink:href="#H"/><use transform="matrix(0.05,0,0,0.05,32.95,0)" xlink:href="#N"/><use transform="matrix(0.05,0,0,0.05,41.95,0)" xlink:href="#w"/><use transform="matrix(0.05,0,0,0.05,51.95,0)" xlink:href="#L"/><use transform="matrix(0.05,0,0,0.05,60.95,0)" xlink:href="#S"/><use transform="matrix(0.05,0,0,0.05,69.95,0)" xlink:href="#A"/><use transform="matrix(0.05,0,0,0.05,79.95,0)" xlink:href="#B"/></g><path d="M9 0v-24l116-142H16v-24h144v24L44-24h123V0H9" id="T"/><g id="l"><use transform="matrix(0.05,0,0,0.05,0,0)" xlink:href="#C"/><use transform="matrix(0.05,0,0,0.05,12,0)" xlink:href="#v"/><use transform="matrix(0.05,0,0,0.05,26.950000000000003,0)" xlink:href="#u"/><use transform="matrix(0.05,0,0,0.05,36.95,0)" xlink:href="#T"/><use transform="matrix(0.05,0,0,0.05,45.95,0)" xlink:href="#w"/><use transform="matrix(0.05,0,0,0.05,55.95,0)" xlink:href="#t"/></g><path d="M212-179c-10-28-35-45-73-45-59 0-87 40-87 99 0 60 29 101 89 101 43 0 62-24 78-52l27 14C228-24 195 4 139 4 59 4 22-46 18-125c-6-104 99-153 187-111 19 9 31 26 39 46" id="U"/><path d="M177-190C167-65 218 103 67 71c-23-6-38-20-44-43l32-5c15 47 100 32 89-28v-30C133-14 115 1 83 1 29 1 15-40 15-95c0-56 16-97 71-98 29-1 48 16 59 35 1-10 0-23 2-32h30zM94-22c36 0 50-32 50-73 0-42-14-75-50-75-39 0-46 34-46 75s6 73 46 73" id="V"/><g id="m"><use transform="matrix(0.05,0,0,0.05,0,0)" xlink:href="#U"/><use transform="matrix(0.05,0,0,0.05,12.950000000000001,0)" xlink:href="#w"/><use transform="matrix(0.05,0,0,0.05,22.950000000000003,0)" xlink:href="#V"/><use transform="matrix(0.05,0,0,0.05,32.95,0)" xlink:href="#t"/><use transform="matrix(0.05,0,0,0.05,42.95,0)" xlink:href="#M"/><use transform="matrix(0.05,0,0,0.05,46.900000000000006,0)" xlink:href="#B"/><use transform="matrix(0.05,0,0,0.05,51.900000000000006,0)" xlink:href="#w"/></g><g id="n"><use transform="matrix(0.05,0,0,0.05,0,0)" xlink:href="#C"/><use transform="matrix(0.05,0,0,0.05,12,0)" xlink:href="#K"/><use transform="matrix(0.05,0,0,0.05,22,0)" xlink:href="#B"/><use transform="matrix(0.05,0,0,0.05,27,0)" xlink:href="#P"/><use transform="matrix(0.05,0,0,0.05,37,0)" xlink:href="#A"/><use transform="matrix(0.05,0,0,0.05,47,0)" xlink:href="#t"/><use transform="matrix(0.05,0,0,0.05,57,0)" xlink:href="#B"/><use transform="matrix(0.05,0,0,0.05,62,0)" xlink:href="#M"/><use transform="matrix(0.05,0,0,0.05,65.95,0)" xlink:href="#L"/><use transform="matrix(0.05,0,0,0.05,74.95,0)" xlink:href="#u"/><use transform="matrix(0.05,0,0,0.05,84.95,0)" xlink:href="#B"/><use transform="matrix(0.05,0,0,0.05,89.95,0)" xlink:href="#M"/><use transform="matrix(0.05,0,0,0.05,93.9,0)" xlink:href="#w"/><use transform="matrix(0.05,0,0,0.05,103.9,0)" xlink:href="#t"/></g><path d="M185-189c-5-48-123-54-124 2 14 75 158 14 163 119 3 78-121 87-175 55-17-10-28-26-33-46l33-7c5 56 141 63 141-1 0-78-155-14-162-118-5-82 145-84 179-34 5 7 8 16 11 25" id="W"/><path d="M126-127c33 6 58 20 58 59 0 88-139 92-164 29-3-8-5-16-6-25l32-3c6 27 21 44 54 44 32 0 52-15 52-46 0-38-36-46-79-43v-28c39 1 72-4 72-42 0-27-17-43-46-43-28 0-47 15-49 41l-32-3c6-42 35-63 81-64 48-1 79 21 79 65 0 36-21 52-52 59" id="X"/><g id="o"><use transform="matrix(0.05,0,0,0.05,0,0)" xlink:href="#W"/><use transform="matrix(0.05,0,0,0.05,12,0)" xlink:href="#X"/></g><g id="p"><use transform="matrix(0.05,0,0,0.05,0,0)" xlink:href="#x"/><use transform="matrix(0.05,0,0,0.05,12,0)" xlink:href="#K"/><use transform="matrix(0.05,0,0,0.05,22,0)" xlink:href="#L"/><use transform="matrix(0.05,0,0,0.05,31,0)" xlink:href="#S"/><use transform="matrix(0.05,0,0,0.05,40,0)" xlink:href="#A"/><use transform="matrix(0.05,0,0,0.05,50,0)" xlink:href="#B"/></g><path d="M114-163C36-179 61-72 57 0H25l-1-190h30c1 12-1 29 2 39 6-27 23-49 58-41v29" id="Y"/><g id="q"><use transform="matrix(0.05,0,0,0.05,0,0)" xlink:href="#r"/><use transform="matrix(0.05,0,0,0.05,12.950000000000001,0)" xlink:href="#M"/><use transform="matrix(0.05,0,0,0.05,16.900000000000002,0)" xlink:href="#L"/><use transform="matrix(0.05,0,0,0.05,25.900000000000002,0)" xlink:href="#B"/><use transform="matrix(0.05,0,0,0.05,30.900000000000002,0)" xlink:href="#M"/><use transform="matrix(0.05,0,0,0.05,34.85,0)" xlink:href="#w"/><use transform="matrix(0.05,0,0,0.05,44.85,0)" xlink:href="#t"/><use transform="matrix(0.05,0,0,0.05,54.85,0)" xlink:href="#u"/><use transform="matrix(0.05,0,0,0.05,64.85,0)" xlink:href="#Y"/><use transform="matrix(0.05,0,0,0.05,70.8,0)" xlink:href="#M"/><use transform="matrix(0.05,0,0,0.05,74.75,0)" xlink:href="#A"/><use transform="matrix(0.05,0,0,0.05,84.75,0)" xlink:href="#N"/></g></defs></g></svg>